# xmcd
#
# Track frame offsets: 
#        200
#        15349
#        33618
#        48734
#        66791
#        77734
#        89517
#        101353
#        114684
#        125288
#
# Disc length: 1848 seconds
#
# Revision: 0
# Processed by: cddbd v1.4PL0 Copyright (c) Steve Scherf et al.
# Submitted via: ExactAudioCopy v0.90a11
#
DISCID=7d07360a
DTITLE=Tom T. Hall - A Soldier of Fortune
DYEAR=1900
DGENRE=
TTITLE0=Soldier of Fortune
TTITLE1=Me and Jimmie Rodgers
TTITLE2=We're All In This Thing Alone
TTITLE3=Back When Gas Was Thirty Cents a Gallon
TTITLE4=The World According to Raymond
TTITLE5=I'll Go Somewhere and Sing My Song Again
TTITLE6=Texas Never Fell In Love With Me
TTITLE7=The Six O'Clock News
TTITLE8=People As Crazy As Me
TTITLE9=Whiskey Castles
EXTD=
EXTT0=
EXTT1=
EXTT2=
EXTT3=
EXTT4=
EXTT5=
EXTT6=
EXTT7=
EXTT8=
EXTT9=
PLAYORDER=
